<svg width="341" height="214" viewBox="0 0 341 214" fill="none" xmlns="http://www.w3.org/2000/svg">
<path d="M9.77511 112.453C5.25896 109.934 4.93956 103.556 9.18144 100.598L149.821 2.53077C152.037 0.985041 154.946 0.853412 157.293 2.19259L331.521 101.592C335.952 104.12 336.278 110.387 332.132 113.36L195.423 211.411C193.219 212.991 190.301 213.157 187.933 211.836L9.77511 112.453Z" fill="black"/>
<rect x="153.632" y="123.214" width="6.0723" height="6.52842" fill="#FABB18"/>
<path d="M130.531 108.586C130.32 110.391 129.652 111.785 128.527 112.77C127.41 113.746 125.922 114.234 124.062 114.234C122.047 114.234 120.43 113.512 119.211 112.066C118 110.621 117.395 108.688 117.395 106.266V104.625C117.395 103.039 117.676 101.645 118.238 100.441C118.809 99.2383 119.613 98.3164 120.652 97.6758C121.691 97.0273 122.895 96.7031 124.262 96.7031C126.074 96.7031 127.527 97.2109 128.621 98.2266C129.715 99.2344 130.352 100.633 130.531 102.422H128.27C128.074 101.062 127.648 100.078 126.992 99.4688C126.344 98.8594 125.434 98.5547 124.262 98.5547C122.824 98.5547 121.695 99.0859 120.875 100.148C120.062 101.211 119.656 102.723 119.656 104.684V106.336C119.656 108.188 120.043 109.66 120.816 110.754C121.59 111.848 122.672 112.395 124.062 112.395C125.312 112.395 126.27 112.113 126.934 111.551C127.605 110.98 128.051 109.992 128.27 108.586H130.531ZM135.441 102.855C136.402 101.676 137.652 101.086 139.191 101.086C141.871 101.086 143.223 102.598 143.246 105.621V114H141.078V105.609C141.07 104.695 140.859 104.02 140.445 103.582C140.039 103.145 139.402 102.926 138.535 102.926C137.832 102.926 137.215 103.113 136.684 103.488C136.152 103.863 135.738 104.355 135.441 104.965V114H133.273V96H135.441V102.855ZM148.848 114H146.68V101.32H148.848V114ZM146.504 97.957C146.504 97.6055 146.609 97.3086 146.82 97.0664C147.039 96.8242 147.359 96.7031 147.781 96.7031C148.203 96.7031 148.523 96.8242 148.742 97.0664C148.961 97.3086 149.07 97.6055 149.07 97.957C149.07 98.3086 148.961 98.6016 148.742 98.8359C148.523 99.0703 148.203 99.1875 147.781 99.1875C147.359 99.1875 147.039 99.0703 146.82 98.8359C146.609 98.6016 146.504 98.3086 146.504 97.957ZM157.414 112.465C158.188 112.465 158.863 112.23 159.441 111.762C160.02 111.293 160.34 110.707 160.402 110.004H162.453C162.414 110.73 162.164 111.422 161.703 112.078C161.242 112.734 160.625 113.258 159.852 113.648C159.086 114.039 158.273 114.234 157.414 114.234C155.688 114.234 154.312 113.66 153.289 112.512C152.273 111.355 151.766 109.777 151.766 107.777V107.414C151.766 106.18 151.992 105.082 152.445 104.121C152.898 103.16 153.547 102.414 154.391 101.883C155.242 101.352 156.246 101.086 157.402 101.086C158.824 101.086 160.004 101.512 160.941 102.363C161.887 103.215 162.391 104.32 162.453 105.68H160.402C160.34 104.859 160.027 104.188 159.465 103.664C158.91 103.133 158.223 102.867 157.402 102.867C156.301 102.867 155.445 103.266 154.836 104.062C154.234 104.852 153.934 105.996 153.934 107.496V107.906C153.934 109.367 154.234 110.492 154.836 111.281C155.438 112.07 156.297 112.465 157.414 112.465ZM168.43 108.129L167.07 109.547V114H164.902V96H167.07V106.887L168.23 105.492L172.18 101.32H174.816L169.883 106.617L175.391 114H172.848L168.43 108.129ZM179.645 107.32V114H177.395V96.9375H183.688C185.555 96.9375 187.016 97.4141 188.07 98.3672C189.133 99.3203 189.664 100.582 189.664 102.152C189.664 103.809 189.145 105.086 188.105 105.984C187.074 106.875 185.594 107.32 183.664 107.32H179.645ZM179.645 105.48H183.688C184.891 105.48 185.812 105.199 186.453 104.637C187.094 104.066 187.414 103.246 187.414 102.176C187.414 101.16 187.094 100.348 186.453 99.7383C185.812 99.1289 184.934 98.8125 183.816 98.7891H179.645V105.48ZM197.293 114.234C195.574 114.234 194.176 113.672 193.098 112.547C192.02 111.414 191.48 109.902 191.48 108.012V107.613C191.48 106.355 191.719 105.234 192.195 104.25C192.68 103.258 193.352 102.484 194.211 101.93C195.078 101.367 196.016 101.086 197.023 101.086C198.672 101.086 199.953 101.629 200.867 102.715C201.781 103.801 202.238 105.355 202.238 107.379V108.281H193.648C193.68 109.531 194.043 110.543 194.738 111.316C195.441 112.082 196.332 112.465 197.41 112.465C198.176 112.465 198.824 112.309 199.355 111.996C199.887 111.684 200.352 111.27 200.75 110.754L202.074 111.785C201.012 113.418 199.418 114.234 197.293 114.234ZM197.023 102.867C196.148 102.867 195.414 103.188 194.82 103.828C194.227 104.461 193.859 105.352 193.719 106.5H200.07V106.336C200.008 105.234 199.711 104.383 199.18 103.781C198.648 103.172 197.93 102.867 197.023 102.867ZM212.586 114C212.461 113.75 212.359 113.305 212.281 112.664C211.273 113.711 210.07 114.234 208.672 114.234C207.422 114.234 206.395 113.883 205.59 113.18C204.793 112.469 204.395 111.57 204.395 110.484C204.395 109.164 204.895 108.141 205.895 107.414C206.902 106.68 208.316 106.312 210.137 106.312H212.246V105.316C212.246 104.559 212.02 103.957 211.566 103.512C211.113 103.059 210.445 102.832 209.562 102.832C208.789 102.832 208.141 103.027 207.617 103.418C207.094 103.809 206.832 104.281 206.832 104.836H204.652C204.652 104.203 204.875 103.594 205.32 103.008C205.773 102.414 206.383 101.945 207.148 101.602C207.922 101.258 208.77 101.086 209.691 101.086C211.152 101.086 212.297 101.453 213.125 102.188C213.953 102.914 214.383 103.918 214.414 105.199V111.035C214.414 112.199 214.562 113.125 214.859 113.812V114H212.586ZM208.988 112.348C209.668 112.348 210.312 112.172 210.922 111.82C211.531 111.469 211.973 111.012 212.246 110.449V107.848H210.547C207.891 107.848 206.562 108.625 206.562 110.18C206.562 110.859 206.789 111.391 207.242 111.773C207.695 112.156 208.277 112.348 208.988 112.348ZM225.195 110.637C225.195 110.051 224.973 109.598 224.527 109.277C224.09 108.949 223.32 108.668 222.219 108.434C221.125 108.199 220.254 107.918 219.605 107.59C218.965 107.262 218.488 106.871 218.176 106.418C217.871 105.965 217.719 105.426 217.719 104.801C217.719 103.762 218.156 102.883 219.031 102.164C219.914 101.445 221.039 101.086 222.406 101.086C223.844 101.086 225.008 101.457 225.898 102.199C226.797 102.941 227.246 103.891 227.246 105.047H225.066C225.066 104.453 224.812 103.941 224.305 103.512C223.805 103.082 223.172 102.867 222.406 102.867C221.617 102.867 221 103.039 220.555 103.383C220.109 103.727 219.887 104.176 219.887 104.73C219.887 105.254 220.094 105.648 220.508 105.914C220.922 106.18 221.668 106.434 222.746 106.676C223.832 106.918 224.711 107.207 225.383 107.543C226.055 107.879 226.551 108.285 226.871 108.762C227.199 109.23 227.363 109.805 227.363 110.484C227.363 111.617 226.91 112.527 226.004 113.215C225.098 113.895 223.922 114.234 222.477 114.234C221.461 114.234 220.562 114.055 219.781 113.695C219 113.336 218.387 112.836 217.941 112.195C217.504 111.547 217.285 110.848 217.285 110.098H219.453C219.492 110.824 219.781 111.402 220.32 111.832C220.867 112.254 221.586 112.465 222.477 112.465C223.297 112.465 223.953 112.301 224.445 111.973C224.945 111.637 225.195 111.191 225.195 110.637Z" fill="white"/>
<path d="M57.4844 108.672L62.6875 57.625H115.141V69.6484H73.7266L70.6328 97.5625C75.6484 94.6094 81.3438 93.1328 87.7188 93.1328C97.0469 93.1328 104.453 96.2266 109.938 102.414C115.422 108.555 118.164 116.875 118.164 127.375C118.164 137.922 115.305 146.242 109.586 152.336C103.914 158.383 95.9688 161.406 85.75 161.406C76.7031 161.406 69.3203 158.898 63.6016 153.883C57.8828 148.867 54.625 141.93 53.8281 133.07H66.1328C66.9297 138.93 69.0156 143.359 72.3906 146.359C75.7656 149.312 80.2188 150.789 85.75 150.789C91.7969 150.789 96.5312 148.727 99.9531 144.602C103.422 140.477 105.156 134.781 105.156 127.516C105.156 120.672 103.281 115.188 99.5312 111.062C95.8281 106.891 90.8828 104.805 84.6953 104.805C79.0234 104.805 74.5703 106.047 71.3359 108.531L67.8906 111.344L57.4844 108.672Z" fill="white"/>
</svg>
